<?xml version="1.0" encoding="UTF-8"?><svg id="Layer_1" xmlns="http://www.w3.org/2000/svg" viewBox="0 0 179.27 257.28"><defs><style>.cls-1{fill:#000;stroke-width:0px;}</style></defs><path class="cls-1" d="M119.42,84.33c-2.06,0-3.73,1.68-3.73,3.75v107.24c0,2.06,1.67,3.73,3.73,3.73s3.73-1.67,3.73-3.73v-107.24c0-2.06-1.67-3.75-3.73-3.75ZM121.06,195.32c0,.9-.73,1.63-1.63,1.63s-1.63-.73-1.63-1.63v-107.24c0-.9.73-1.64,1.63-1.64s1.63.74,1.63,1.64v107.24Z"/><path class="cls-1" d="M99.56,84.33c-2.05,0-3.74,1.68-3.74,3.75v107.24c0,2.06,1.68,3.73,3.74,3.73s3.75-1.67,3.75-3.73v-107.24c0-2.06-1.68-3.75-3.75-3.75ZM101.2,195.32c0,.9-.74,1.63-1.64,1.63s-1.63-.73-1.63-1.63v-107.24c0-.9.74-1.64,1.63-1.64s1.64.74,1.64,1.64v107.24Z"/><path class="cls-1" d="M133.48,69.25h-22.57v-29.15c0-.12-.01-.25-.03-.37,0-.05.03-.1.03-.15v-2.61c0-2.35-1.91-4.24-4.26-4.24h-34.05c-2.35,0-4.26,1.9-4.26,4.24v2.61c0,.05.03.1.04.16-.03.11-.04.23-.04.36v29.15h-22.57c-5.59,0-10.15,4.56-10.15,10.16v125.33c0,5.6,4.56,10.16,10.15,10.16h5.21c-.37.84-.58,1.77-.58,2.76,0,3.8,3.08,6.88,6.88,6.88s6.87-3.08,6.87-6.88c0-.99-.22-1.92-.58-2.76h46.85c-.37.84-.58,1.77-.58,2.76,0,3.8,3.09,6.88,6.88,6.88s6.88-3.08,6.88-6.88c0-.99-.21-1.92-.58-2.76h10.44c5.59,0,10.15-4.56,10.15-10.16v-125.33c0-5.6-4.56-10.16-10.15-10.16ZM105.55,40.87h3.27v28.38h-3.27v-28.38ZM75.82,40.87h27.62v28.38h-27.62v-28.38ZM70.45,40.87h3.27v28.38h-3.27v-28.38ZM141.53,204.75c0,4.45-3.61,8.05-8.05,8.05H45.79c-4.44,0-8.05-3.6-8.05-8.05v-125.33c0-4.45,3.61-8.05,8.05-8.05h33.75l-4.61,9.09-11.4,3.6-.77,1.68c-.67-.85-1.73-1.4-2.9-1.4-2.06,0-3.74,1.69-3.74,3.75v12.14l-4.53,9.9,4.53,2.07v83.11c0,2.06,1.68,3.74,3.74,3.74s3.74-1.68,3.74-3.74v-79.69l6.22,2.86,6.15-13.42v90.25c0,2.06,1.69,3.74,3.75,3.74s3.74-1.68,3.74-3.74v-107.23c0-2.06-1.68-3.75-3.74-3.75-.47,0-.91.1-1.32.26l-1.43-3.31,5.04-9.92h51.48c4.44,0,8.05,3.6,8.05,8.05v125.33ZM74.45,91.83c.07.12.18.23.32.34.71.55,1.47,1.04,2.23,1.54,0,.01.01.01.01.01.11.07.22.14.33.22.43.27.88.51,1.3.81.07.04.14.1.19.14-.56-.19-1.14-.41-1.72-.59-.11-.04-.22-.07-.33-.11h-.01c-.77-.23-1.54-.44-2.32-.65-.29-.08-.55-.08-.78-.03,0,0-.01,0-.01.01-.43.12-.71.48-.77,1v.23c.01.3.07.6.14.91v.04c.04.18.08.34.11.51.03.11.05.21.08.32h0s-.18-.07-.18-.07c-.04-.05-.07-.11-.11-.16-.03-.05-.07-.1-.1-.15-.29-.44-.55-.89-.89-1.28-.11-.12-.23-.22-.34-.29-.47-.26-.98-.15-1.32.36-.05.08-.11.16-.16.23-.33.49-.65,1-.96,1.51-.41.65-.8,1.29-1.21,1.94-.05.1-.1.19-.19.27-.01.01-.04.04-.05.05-.01,0-.03.01-.04.03.01-.04.01-.08.03-.11.14-.38.27-.76.37-1.14.14-.45.26-.92.38-1.37.15-.56.3-1.14.45-1.72.01-.07.04-.15.05-.22.14-.55-.1-1.06-.54-1.28-.16-.08-.36-.12-.56-.12-.48.01-.95.12-1.43.22-.04,0-.08.01-.12.03-.12.01-.23.05-.34.08,0,0,0-.01-.01-.01.11-.05.21-.11.3-.18.04-.03.1-.07.15-.1.44-.29.89-.55,1.28-.91.12-.11.22-.22.29-.34.26-.45.15-.96-.36-1.3-.58-.4-1.15-.77-1.74-1.13-.65-.41-1.29-.81-1.94-1.21-.1-.05-.19-.11-.27-.19-.01-.03-.04-.04-.05-.07-.01,0-.01-.01-.03-.03.04,0,.07.01.11.03.38.12.76.26,1.14.37.45.12.91.26,1.37.38.65.18,1.29.34,1.94.51.55.14,1.06-.1,1.28-.55.08-.15.12-.34.12-.56-.01-.47-.14-.95-.22-1.41-.01-.04-.01-.1-.03-.14-.01-.12-.07-.26-.11-.38.03-.01.05-.03.07-.04.07.14.11.26.19.38.08.12.15.26.23.38.19.34.4.67.65.96.01.01.03.01.03.03.38.41.87.51,1.28.25.11-.08.22-.18.33-.32.55-.71,1.06-1.47,1.55-2.22h0c.07-.12.15-.23.22-.34.27-.43.52-.88.81-1.3.04-.07.1-.14.15-.21-.21.58-.43,1.14-.6,1.73-.04.11-.07.22-.1.33,0,0-.01,0-.01.01-.22.77-.44,1.54-.65,2.32-.08.29-.08.55-.01.77v.03c.12.43.48.71,1.02.76.07.01.14.01.22.01.3-.01.62-.07.92-.14.01,0,.03-.01.03-.01.1-.01.18-.03.26-.05.03,0,.05-.01.08-.01.08-.01.15-.03.23-.04.11-.01.23-.04.36-.07.01.03.01.05.03.08-.01.01-.03.03-.03.03h0c-.05.04-.1.07-.14.11-.07.03-.14.05-.21.1-.12.08-.26.16-.38.25-.34.19-.67.4-.96.65-.01.01-.03.01-.03.03-.43.38-.51.87-.25,1.26ZM81.35,93.3v102.01c0,.91-.74,1.63-1.63,1.63s-1.65-.73-1.65-1.63v-94.84l3.28-7.17ZM79.23,86.52c.15-.05.32-.08.48-.08.89,0,1.63.74,1.63,1.65v3.37l-2.12-4.93ZM58.22,95.64v-7.55c0-.91.73-1.65,1.63-1.65s1.62.74,1.62,1.65v.44l-3.26,7.11ZM61.47,114.66v80.65c0,.91-.71,1.63-1.62,1.63s-1.63-.73-1.63-1.63v-82.15l3.26,1.5Z"/></svg>