<?xml version="1.0" encoding="UTF-8"?><svg id="Layer_1" xmlns="http://www.w3.org/2000/svg" viewBox="0 0 295.95 344.59"><path d="M72.97,105.04c2.01.91,2.49,2.85,1.7,4.59l-1.74,3.82,1.52.69c1.27.58,2.22.47,2.5.41l-1.57,3.44-.04-.08c-.14-.25-.63-.95-1.91-1.53l-5.59-2.54c-1.57-.71-2.5-.41-2.5-.41l3.04-6.66c.4-.87,1.1-1.5,1.94-1.81.83-.31,1.78-.31,2.66.09ZM71.95,107.28c-1.33-.61-3.02-.06-3.62,1.27l-1.06,2.34,5.04,2.28,1.35-2.99c.3-.67-.13-2.18-1.71-2.9Z"/><path d="M86.05,98.72l-2.18,3.37c-.86-.44-1.79-.75-2.75-.93l-3.15,4.86.27.45c.42.69,1,1.26,1.7,1.67l-1.11,1.71c-.33-1.29-.86-2.53-1.56-3.67l-2.83-4.66c-.52-.84-1.39-1.41-2.37-1.52l1.49-2.29,7.62.97c1.62.21,3.26.22,4.88.04ZM80.36,101.05l-5.86-.75,3.06,5.06,2.8-4.31Z"/><path d="M94.13,90.23l-1.85,1.98c-.44.47-1.07.7-1.71.62l-3.39-.52c-.44,0-.92-.01-1.36.46-.59.64-.58,1.31.06,1.9l.4.37c1.02.95,1.86,1.15,2.14,1.18h.09s-2.59,2.78-2.59,2.78v-.09c-.06-.28-.31-1.11-1.33-2.06l-4.49-4.2c-1.26-1.18-2.24-1.19-2.24-1.19l5.01-5.36c.65-.7,1.52-1.07,2.41-1.1.89-.03,1.79.28,2.49.93,1.28,1.2,1.33,3.04.32,4.41.34-.16.71-.23,1.1-.18l2.55.3c.8.1,1.61,0,2.38-.25ZM86.09,87.76c-1.07-1-2.84-1.03-3.84.04l-1.75,1.87,3.89,3.62,1.74-1.86c1-1.07,1.03-2.67-.04-3.67Z"/><path d="M104.12,82.77l-3.21,2.41c-.66-.71-1.42-1.32-2.26-1.82l-4.64,3.48.1.52c.16.79.51,1.53,1.02,2.15l-1.63,1.23c.13-1.32.06-2.67-.2-3.98l-1.05-5.35c-.2-.97-.82-1.8-1.71-2.25l2.18-1.64,6.83,3.54c1.45.76,2.98,1.33,4.57,1.71ZM97.98,83l-5.24-2.72,1.13,5.81,4.11-3.09Z"/><path d="M112.37,75.94s0,.01,0,.02c.11.91-.58,3.35-3.8,5.03-3.32,1.73-6.56.46-8.05-2.39-1.5-2.85-.64-6.19,2.67-7.93,2.23-1.18,4.81-1.28,6.31-.06.57.47.47,1.37-.18,1.72l-1.25.66c-.48-2.17-3.68-2.66-5.41-1.19-1.96,1.67-1.06,4.73.29,6.36,1.36,1.61,3.92,2.94,6.34,1.66,0,0,0,0,.01,0,1.08-.56.96-1.94.51-2.81-.43-.83-1.56-1.17-2.47-.99l-1.27.24,5.08-2.64,1.21,2.32Z"/><path d="M123.78,69.07c.95,3.07-.31,6.19-4.11,7.36-3.81,1.18-6.6-.69-7.55-3.76-.95-3.07.31-6.19,4.11-7.36s6.6.69,7.55,3.76ZM120.85,68.66c-1.98-2.61-4.3-3.16-6-1.87-1.7,1.29-1.69,3.8.19,6.28,1.88,2.48,4.3,3.17,6.01,1.88,1.7-1.29,1.69-3.82-.19-6.29Z"/><path d="M135.81,61.94s-.57.8-.36,2.51l1.05,8.53-1.3.16c-.38.05-.75-.08-1.02-.35l-8.48-8.54.92,7.49c.17,1.39.69,2.07.89,2.28l.07.07-2,.25.05-.08c.14-.25.48-1.04.31-2.43l-.75-6.1c-.21-1.71-.96-2.35-.96-2.35l3.02-.37c.38-.05.75.08,1.02.35l7.25,7.3-.75-6.12c-.21-1.71-.96-2.35-.96-2.35l2-.25Z"/><path d="M154.82,69.86c-.78,2.07-2.9,3.55-5.69,3.55-3.75,0-6.02-2.64-6.02-5.85s2.31-5.78,6.05-5.78c2.5,0,4.83,1.09,5.6,2.84.31.7-.18,1.49-.93,1.49h-1.43c.58-2.15-2.02-4.05-4.24-3.55-2.52.56-2.87,3.68-2.43,5.75.44,2.06,1.83,4.3,4.56,4.3,2.42,0,4.53-2.74,4.53-2.73Z"/><path d="M168.07,68.25c-.24,3.2-2.55,5.64-6.52,5.35s-5.89-3.05-5.65-6.26c.24-3.2,2.55-5.64,6.52-5.35s5.89,3.05,5.65,6.26ZM165.49,66.8c-.89-3.15-2.85-4.51-4.9-3.94-2.06.58-2.97,2.92-2.12,5.91.84,3,2.85,4.53,4.9,3.95,2.06-.58,2.97-2.93,2.12-5.93Z"/><path d="M181.89,66.04s-.82.53-1.25,2.2l-2.14,8.32-1.27-.33c-.37-.09-.67-.35-.82-.7l-4.76-11.05-1.89,7.3c-.35,1.35-.11,2.18,0,2.45l.04.09-1.95-.5.07-.06c.22-.18.83-.79,1.18-2.14l1.53-5.95c.43-1.67-.03-2.53-.03-2.53l2.95.76c.37.09.67.35.82.7l4.07,9.45,1.54-5.97c.43-1.67-.03-2.53-.03-2.53l1.95.5Z"/><path d="M191.26,78.64c-1.56,1.57-4.11,2.03-6.65.88-3.41-1.55-4.39-4.89-3.07-7.82,1.33-2.93,4.49-4.31,7.9-2.76,2.28,1.03,3.95,2.99,3.92,4.9,0,.76-.78,1.28-1.46.97l-1.3-.59c1.42-1.72-.16-4.53-2.39-4.99-2.52-.53-4.14,2.17-4.59,4.23-.45,2.06-.11,4.67,2.38,5.8,2.2,1,5.26-.62,5.26-.62Z"/><path d="M193.43,83.91v.09s-3.22-1.96-3.22-1.96l.09-.03c.27-.11,1.02-.52,1.75-1.71l3.2-5.25c.9-1.47.7-2.43.7-2.43l3.23,1.96s-.94.27-1.84,1.74l-3.2,5.25c-.73,1.19-.74,2.06-.72,2.34Z"/><path d="M203.35,88.58l-1.35,1.75-7.98-6.14.09-.02c.28-.08,1.07-.4,1.93-1.51l3.75-4.87c.06-.08.13-.17.18-.25.86-1.24.78-2.09.78-2.09l7.54,5.8-1.35,1.75c-.14-1.07-.5-2.29-1.35-2.94l-2.8-2.16-2.68,3.48,2.47,1.9c.69.53,1.59.77,2.45.93l-1.35,1.75h0c-.38-.79-.83-1.6-1.51-2.12l-2.48-1.91-2.78,3.62,3.25,2.5c.85.65,2.12.68,3.19.55Z"/><path d="M210.42,99.17l-1.86-1.98c-.44-.47-.63-1.12-.51-1.74l.73-3.35c.03-.44.07-.92-.37-1.38-.6-.63-1.27-.66-1.9-.07l-.4.37c-1.02.96-1.26,1.78-1.31,2.07v.09s-2.62-2.76-2.62-2.76h.09c.28-.04,1.12-.23,2.14-1.19l4.48-4.21c1.26-1.18,1.33-2.16,1.33-2.16l5.03,5.34c.65.7.97,1.59.94,2.48s-.39,1.77-1.09,2.43c-1.28,1.2-3.12,1.14-4.42.04.14.35.18.73.11,1.11l-.47,2.52c-.15.79-.11,1.61.1,2.39ZM213.41,91.31c1.07-1,1.21-2.77.2-3.84l-1.75-1.86-3.87,3.65,1.75,1.86c1,1.07,2.6,1.2,3.67.2Z"/><path d="M218.53,107.13s-.01,0-.02,0c-.9.2-3.4-.21-5.4-3.23-2.07-3.12-1.16-6.47,1.5-8.26,2.67-1.8,6.08-1.3,8.17,1.81,1.41,2.09,1.79,4.64.73,6.26-.4.62-1.31.62-1.73,0l-.79-1.17c2.11-.71,2.25-3.94.6-5.51-1.87-1.77-4.82-.55-6.29.97-1.46,1.53-2.5,4.21-.97,6.48,0,0,0,0,0,.01.67,1.02,2.04.75,2.85.2.77-.52.99-1.67.72-2.56l-.38-1.23,3.17,4.76-2.18,1.46Z"/><path d="M222.8,117.13l-2.01.91-4.13-9.18.09.02c.28.06,1.13.15,2.41-.42l5.61-2.52c.1-.04.19-.09.28-.13,1.34-.68,1.68-1.47,1.68-1.47l3.91,8.68-2.01.91c.38-1.01.64-2.25.2-3.23l-1.45-3.23-4,1.8,1.28,2.84c.36.8,1.04,1.43,1.72,1.98l-2.01.91h0c.03-.87.02-1.8-.33-2.59l-1.29-2.86-4.16,1.87,1.68,3.73c.44.98,1.55,1.61,2.55,1.99Z"/><path d="M62.13,174.05c-2.47,0-3.49-2.64-3.49-5.26,0-1.72.81-3.86,2.17-4.68.65-.39,1.5.11,1.5.86v1.18c-2.37,0-3.01,1.47-3.01,2.66,0,.95.64,2.74,2.82,2.74.66,0,1.25-1.65,1.47-3.06.43-2.7,1.32-4.71,3.43-4.71,2.38,0,3.33,2.92,3.4,4.96,0,1.54-.68,3.94-2.41,4.69-.63.27-1.34-.23-1.34-.9v-1.27c2.41,0,3.05-1.26,3.05-2.48,0-1.15-.63-2.51-2.69-2.51-1.05,0-1.33,1.67-1.49,2.69-.43,2.69-1.21,5.07-3.41,5.07Z"/><path d="M66.6,186.14c-2.25,0-3.51-1.59-3.51-3.53v-4.27h-1.69c-1.42,0-2.25.5-2.48.68v-3.85s.08.06.08.06c.23.17.99.61,2.41.61h6.25c1.75,0,2.48-.67,2.48-.67v7.44c0,.97-.4,1.85-1.04,2.49s-1.52,1.04-2.5,1.04ZM66.6,183.64c1.49,0,2.82-1.21,2.82-2.7v-2.61s-5.63,0-5.63,0v3.34c0,.75,1.05,1.96,2.81,1.96Z"/><path d="M61.15,197.35h-2.24v-10.24l.07.06c.23.17.99.61,2.41.61h6.25c.11,0,.22,0,.32,0,1.53-.08,2.17-.66,2.17-.66v9.67h-2.24c.77-.77,1.54-1.82,1.54-2.91v-3.6h-4.46v3.17c0,.89.37,1.76.77,2.55h-2.24,0c.39-.8.76-1.66.76-2.54v-3.18h-4.64v4.16c0,1.09.76,2.14,1.54,2.91Z"/><path d="M62.39,210.07c-2.13-.74-3.68-2.86-3.75-5.69-.1-3.8,2.53-6.18,5.79-6.27,3.27-.08,5.93,2.2,6.03,6,.06,2.54-.99,4.93-2.74,5.76-.7.33-1.52-.14-1.54-.91l-.04-1.45c2.2.54,4.07-2.15,3.5-4.4-.63-2.54-3.81-2.82-5.9-2.32-2.08.5-4.32,1.97-4.25,4.74.06,2.45,2.89,4.53,2.89,4.53Z"/><path d="M60.09,215.67l-.07.07-.55-3.8.08.05c.26.14,1.07.47,2.47.26l6.18-.9c1.73-.25,2.36-1.02,2.36-1.02l.55,3.8s-.82-.56-2.55-.31l-6.18.9c-1.41.2-2.09.75-2.3.95Z"/><path d="M63.58,230.1l-1.08-3.93c.92-.36,1.78-.85,2.56-1.46l-1.56-5.68-.53-.1c-.81-.15-1.64-.09-2.42.17l-.55-2c1.2.62,2.5,1.05,3.84,1.3l5.45,1c.99.18,2.01-.1,2.76-.78l.74,2.68-5.88,5.14c-1.25,1.09-2.37,2.32-3.32,3.68ZM65.66,224.2l4.52-3.94-5.91-1.09,1.39,5.04Z"/><path d="M70.26,239.21l-2.04.93-3.95-8.65.09.02c.28.06,1.15.15,2.45-.44l5.68-2.59c1.59-.73,1.98-1.64,1.98-1.64l1.59,3.49s-.94-.31-2.54.42l-7.3,3.33,1.43,3.13c.45.99,1.58,1.63,2.6,2.01Z"/><path d="M70.96,244.48l-.04.09-1.94-3.31h.09c.29.04,1.16.04,2.39-.68l5.39-3.16c1.51-.89,1.8-1.84,1.8-1.84l1.94,3.31s-.97-.21-2.48.68l-5.39,3.16c-1.23.72-1.65,1.48-1.77,1.75Z"/><path d="M86.45,247.15l-1.25.92-11.44-.44,2.51,3.41c.65.88,1.88,1.27,2.96,1.43l-1.81,1.33-5.69-7.73,1.25-.92,11.49.51-2.56-3.47c-.65-.88-1.88-1.27-2.96-1.43l1.81-1.33,5.69,7.73Z"/><path d="M81.21,257.76l-.02.09-2.58-2.84h.09c.29-.03,1.14-.22,2.2-1.17l4.62-4.2c1.3-1.18,1.38-2.17,1.38-2.17l2.58,2.84s-.99,0-2.29,1.17l-4.62,4.2c-1.05.96-1.31,1.79-1.37,2.08Z"/><path d="M98.66,258.59s-.99.11-2.13,1.44l-5.71,6.6-1.01-.87c-.29-.25-.45-.62-.43-1.01l.66-12.21-5.02,5.79c-.93,1.07-1.09,1.93-1.11,2.22v.09s-1.56-1.34-1.56-1.34l.09-.02c.28-.06,1.11-.35,2.04-1.42l4.09-4.73c1.15-1.33,1.12-2.32,1.12-2.32l2.34,2.02c.29.25.45.63.43,1.01l-.57,10.44,4.1-4.74c1.15-1.33,1.12-2.32,1.12-2.32l1.55,1.34Z"/><path d="M104.49,272.31s-.01,0-.02.01c-.73.58-3.21,1.29-6.37-.61-3.26-1.96-3.89-5.43-2.22-8.24,1.67-2.82,5.01-3.85,8.29-1.91,2.21,1.3,3.67,3.48,3.41,5.43-.1.74-.94,1.14-1.58.76l-1.24-.73c1.62-1.57.34-4.6-1.86-5.31-2.49-.8-4.66,1.6-5.35,3.64-.67,2.04-.45,4.96,1.94,6.37,0,0,0,0,.01,0,1.06.64,2.19-.2,2.71-1.06.48-.81.18-1.97-.46-2.67l-.88-.97,4.99,2.99-1.36,2.29Z"/><path d="M114.24,278.7l.03.09-3.61-1.29.08-.05c.24-.16.91-.73,1.39-2.06l2.1-5.88c.59-1.65.2-2.57.2-2.57l3.61,1.29s-.88.46-1.47,2.11l-2.1,5.88c-.48,1.34-.32,2.2-.23,2.48Z"/><path d="M130.01,271.2s-.82.56-1.2,2.27l-1.92,8.52-1.3-.29c-.37-.08-.69-.34-.85-.69l-5.18-11.07-1.69,7.47c-.31,1.39-.05,2.22.07,2.49l.04.09-2-.45.07-.06c.22-.19.82-.83,1.13-2.22l1.37-6.09c.39-1.71-.11-2.57-.11-2.57l3.02.68c.38.08.69.34.85.69l4.43,9.47,1.38-6.11c.39-1.71-.11-2.57-.11-2.57l2,.45Z"/><path d="M145.77,279.59c0,2.47-2.64,3.49-5.25,3.49-1.72,0-3.86-.81-4.68-2.17-.39-.65.11-1.5.86-1.5h1.18c0,2.37,1.47,3.01,2.66,3.01.95,0,2.74-.64,2.74-2.82,0-.66-1.65-1.25-3.06-1.47-2.7-.43-4.71-1.32-4.71-3.43,0-2.38,2.92-3.33,4.96-3.4,1.54,0,3.94.68,4.7,2.41.27.63-.23,1.34-.9,1.34h-1.27c0-2.41-1.26-3.05-2.48-3.05-1.15,0-2.51.63-2.51,2.69,0,1.05,1.67,1.33,2.69,1.49,2.69.43,5.07,1.21,5.07,3.41Z"/><path d="M157.87,275.12c0,2.25-1.59,3.51-3.53,3.51h-4.27v1.69c0,1.42.5,2.25.68,2.48h-3.85s.06-.08.06-.08c.18-.23.62-.99.62-2.41v-6.25c0-1.75-.67-2.48-.67-2.48h7.44c.97,0,1.85.4,2.49,1.04s1.04,1.52,1.04,2.5ZM155.37,275.12c0-1.49-1.21-2.82-2.7-2.82h-2.61s0,5.63,0,5.63h3.34c.75,0,1.96-1.05,1.96-2.81Z"/><path d="M169.37,279.67l.22,2.23-10.19,1.01.05-.08c.15-.25.51-1.04.37-2.46l-.62-6.22c-.01-.11-.02-.21-.04-.31-.23-1.51-.88-2.09-.88-2.09l9.63-.95.22,2.23c-.84-.69-1.96-1.35-3.04-1.24l-3.58.35.44,4.44,3.15-.31c.88-.09,1.72-.54,2.47-1.02l.22,2.23h-.01c-.82-.32-1.72-.6-2.59-.52l-3.17.31.46,4.62,4.14-.41c1.08-.11,2.05-.97,2.74-1.82Z"/><path d="M181.92,275.44c-.23,2.24-1.93,4.24-4.67,4.96-3.68.97-6.6-1.03-7.44-4.19-.83-3.16.77-6.28,4.45-7.25,2.46-.65,5.03-.18,6.24,1.34.48.61.21,1.51-.53,1.71l-1.4.37c.02-2.27-3.03-3.46-5.09-2.39-2.33,1.2-1.87,4.36-.9,6.28.97,1.91,2.91,3.75,5.6,3.04,2.37-.63,3.74-3.86,3.74-3.86Z"/><path d="M187.9,276.37l.08.05-3.57,1.42.03-.09c.08-.28.21-1.15-.32-2.47l-2.31-5.8c-.65-1.63-1.54-2.06-1.54-2.06l3.57-1.42s-.36.93.29,2.56l2.31,5.8c.52,1.32,1.21,1.86,1.46,2.01Z"/><path d="M201.12,269.62l-3.57,1.97c-.56-.81-1.24-1.54-2.02-2.15l-5.16,2.84.03.53c.04.82.29,1.61.72,2.31l-1.82,1c.32-1.31.44-2.68.37-4.03l-.3-5.54c-.06-1-.57-1.93-1.4-2.5l2.43-1.34,6.36,4.53c1.35.97,2.81,1.76,4.35,2.38ZM194.9,268.97l-4.89-3.48.31,6,4.58-2.52Z"/><path d="M208.45,261.01l1.38,1.77-7.5,5.85v-.1c0-.29-.12-1.16-1-2.28l-3.84-4.93c-1.08-1.38-2.06-1.55-2.06-1.55l3.03-2.36s-.08.99,1,2.37l4.93,6.33,2.71-2.11c.86-.67,1.22-1.92,1.35-3Z"/><path d="M223.07,248l-1.74,2.14c-.41.51-1.04.79-1.69.75l-3.48-.28c-.45.03-.93.06-1.34.56-.56.69-.49,1.37.19,1.93l.43.35c1.1.89,1.97,1.03,2.26,1.04h.1s-2.43,3-2.43,3l-.02-.09c-.07-.28-.38-1.1-1.48-1.99l-4.85-3.94c-1.36-1.1-2.35-1.04-2.35-1.04l4.7-5.79c.61-.76,1.47-1.19,2.37-1.29.9-.09,1.83.15,2.6.77,1.39,1.13,1.57,2.98.64,4.45.34-.19.71-.28,1.1-.26l2.6.12c.82.04,1.64-.11,2.4-.42ZM214.75,246.06c-1.16-.94-2.96-.84-3.9.32l-1.64,2.02,4.2,3.4,1.63-2.01c.94-1.16.85-2.78-.3-3.72Z"/><path d="M227.06,236.58l1.95,1.11-5.08,8.88-.04-.09c-.12-.27-.55-1.02-1.78-1.73l-5.42-3.1c-.09-.05-.19-.11-.28-.15-1.36-.69-2.21-.5-2.21-.5l4.8-8.39,1.94,1.11c-1.05.29-2.24.82-2.78,1.76l-1.79,3.12,3.87,2.21,1.57-2.75c.44-.77.56-1.71.6-2.6l1.94,1.11h-.01c-.73.5-1.48,1.06-1.92,1.82l-1.58,2.76,4.02,2.3,2.07-3.61c.54-.94.4-2.23.11-3.29Z"/><path d="M234.27,228.15c1.03-.42,1.98-1,2.84-1.7l-.63,1.7c-.2.54-.72,1.05-1.27,1.37l-.61.26c-1.29.54-2.45,1.38-3.24,2.54-1.66,2.44-4.46,2.77-6.81,1.89-3.06-1.14-4.78-4.08-3.37-7.87,1.42-3.8,4.64-4.89,7.7-3.75,2.02.75,3.47,2.31,3.77,4.59.1.78.88,1.27,1.61.97ZM226.76,224.68c-3.32-.03-5.21,1.5-5.23,3.68-.01,2.18,2.01,3.72,5.18,3.75,3.16.03,5.19-1.49,5.21-3.66.01-2.18-1.99-3.73-5.16-3.76Z"/><path d="M225.44,210.63l.36-2,.06.07c.17.18.69.64,1.75.92h.05c.14.04,4.08.76,4.08.76,3.5.63,4.84,3.33,4.32,6.22-.26,1.45-1.13,2.86-2.24,3.62-1.12.78-2.57,1.1-4.01.84l-3.61-.65c-1.4-.25-2.22.05-2.48.18l-.08.04.68-3.77.06.07c.17.18.69.64,1.75.92h.05c.14.04.29.07.43.1l3.87.7c2.11.38,4.63-.69,5.01-2.8.43-2.38-1.38-4.34-3.66-4.75l-4.19-.76c-1.03-.19-1.85.11-2.11.24l-.08.04h0Z"/><path d="M234.89,198.39l2.24.04-.18,10.24-.07-.06c-.23-.18-.98-.63-2.4-.66l-6.25-.11c-.11,0-.22,0-.32,0-1.53.05-2.18.63-2.18.63l.17-9.67,2.24.04c-.79.76-1.57,1.79-1.59,2.88l-.06,3.6,4.46.08.05-3.17c.01-.89-.34-1.77-.72-2.57l2.24.04h0c-.4.79-.79,1.65-.81,2.52l-.05,3.18,4.64.08.07-4.16c.02-1.09-.73-2.15-1.49-2.93Z"/><path d="M233.83,186.97c2.47,0,3.49,2.64,3.49,5.26,0,1.72-.81,3.86-2.17,4.68-.65.39-1.5-.11-1.5-.86v-1.18c2.37,0,3.01-1.47,3.01-2.66,0-.95-.64-2.74-2.82-2.74-.66,0-1.25,1.65-1.47,3.06-.43,2.7-1.32,4.71-3.43,4.71-2.38,0-3.33-2.92-3.4-4.96,0-1.54.68-3.94,2.41-4.69.63-.27,1.34.23,1.34.9v1.27c-2.41,0-3.05,1.26-3.05,2.48,0,1.15.63,2.51,2.69,2.51,1.05,0,1.33-1.67,1.49-2.69.43-2.69,1.21-5.07,3.41-5.07Z"/><path d="M225.84,174.79h2.24c-.77.77-1.54,1.82-1.54,2.91v1.58h8.06c.15,0,.3,0,.44,0h.05c1.09-.09,1.69-.45,1.89-.6l.07-.06v3.84l-.07-.06c-.23-.17-.99-.62-2.41-.62h-8.03s0,1.58,0,1.58c0,1.09.76,2.14,1.54,2.91h-2.24v-11.47Z"/><path d="M233.83,163.74c2.47,0,3.49,2.64,3.49,5.26,0,1.72-.81,3.86-2.17,4.68-.65.39-1.5-.11-1.5-.86v-1.18c2.37,0,3.01-1.47,3.01-2.66,0-.95-.64-2.74-2.82-2.74-.66,0-1.25,1.65-1.47,3.06-.43,2.7-1.32,4.71-3.43,4.71-2.38,0-3.33-2.92-3.4-4.96,0-1.54.68-3.94,2.41-4.69.63-.27,1.34.23,1.34.9v1.27c-2.41,0-3.05,1.26-3.05,2.48,0,1.15.63,2.51,2.69,2.51,1.05,0,1.33-1.67,1.49-2.69.43-2.69,1.21-5.07,3.41-5.07Z"/><path d="M157.77,293.83h-19.59c-48.71,0-88.33-39.35-88.33-87.71v-67.64c0-48.36,39.63-87.71,88.33-87.71h19.59c48.71,0,88.33,39.35,88.33,87.71v67.64c0,48.36-39.63,87.71-88.33,87.71ZM138.18,52.88c-47.53,0-86.2,38.4-86.2,85.6v67.64c0,47.2,38.67,85.6,86.2,85.6h19.59c47.53,0,86.2-38.4,86.2-85.6v-67.64c0-47.2-38.67-85.6-86.2-85.6h-19.59Z"/><path d="M154.96,262.43h-13.96c-34.72,0-62.97-29.18-62.97-65.05v-50.16c0-35.87,28.25-65.05,62.97-65.05h13.96c34.72,0,62.97,29.18,62.97,65.05v50.16c0,35.87-28.25,65.05-62.97,65.05ZM140.99,83.73c-33.88,0-61.45,28.48-61.45,63.48v50.16c0,35.01,27.57,63.48,61.45,63.48h13.96c33.88,0,61.45-28.48,61.45-63.48v-50.16c0-35.01-27.57-63.48-61.45-63.48h-13.96Z"/><path d="M241.05,141.16c-.76.07-1.51.11-2.27.21-.14.02-.28.04-.42.06,0,0-.01,0-.02,0-1,.14-1.99.29-2.99.46-.36.06-.66.19-.89.38,0,0-.01,0-.02.02-.42.36-.56.92-.34,1.55.03.08.06.17.11.26.17.34.4.66.63.97.01.01.02.03.03.04.13.17.26.35.39.52.07.11.16.21.25.31,0,0,0,.01.01.02h-.26c-.07-.04-.13-.09-.2-.13-.06-.04-.13-.08-.19-.12-.55-.35-1.09-.74-1.68-.99-.18-.08-.36-.13-.53-.14-.65-.06-1.18.33-1.31,1.09-.02.12-.04.23-.06.35-.12.73-.23,1.47-.33,2.21-.13.94-.24,1.89-.37,2.83-.02.13-.02.27-.08.41h0s-.02.06-.04.09c0,.02-.02.03-.03.05,0-.05-.01-.09-.01-.14,0,0,0,0,0,0-.05-.5-.09-.99-.17-1.48-.09-.58-.18-1.17-.28-1.76-.12-.73-.24-1.46-.37-2.18-.02-.1-.03-.19-.05-.29-.13-.69-.66-1.14-1.27-1.17-.23-.01-.47.04-.7.15-.53.26-1.01.64-1.5.98-.05.03-.09.07-.14.1-.12.08-.22.18-.34.28,0,0-.01-.01-.02-.02.08-.12.17-.23.24-.35.04-.06.08-.13.12-.19.35-.55.74-1.09.99-1.68.08-.18.13-.36.14-.53.06-.65-.33-1.18-1.09-1.31-.85-.15-1.7-.27-2.56-.39-.94-.13-1.89-.24-2.83-.37-.13-.02-.27-.02-.41-.08h0s-.06-.03-.09-.04c-.02,0-.03-.02-.05-.03.05,0,.09-.01.14-.01,0,0,0,0,0,0,.5-.05.99-.09,1.48-.17.58-.09,1.17-.18,1.76-.28.83-.13,1.65-.27,2.47-.42.69-.13,1.14-.66,1.17-1.27.01-.23-.04-.47-.15-.7-.26-.53-.64-1.01-.98-1.5-.03-.05-.07-.09-.1-.14-.09-.14-.22-.26-.33-.39.02-.02.04-.05.06-.07.13.11.26.23.41.33.16.1.32.21.47.32.4.28.8.56,1.24.76.01,0,.03.01.04.02.65.28,1.24.13,1.57-.38.09-.15.17-.32.22-.52.26-1.1.44-2.22.61-3.34,0,0,0-.01,0-.02.03-.16.05-.32.07-.48.1-.63.14-1.27.25-1.9.02-.1.04-.21.06-.31.07.76.11,1.51.21,2.27.02.14.04.28.06.42,0,0,0,.01,0,.02.14,1,.29,1.99.46,2.99.06.36.19.66.38.89,0,0,0,.01.02.02.36.42.92.56,1.55.34.08-.03.17-.06.26-.11.34-.17.66-.4.97-.63.01-.01.03-.02.04-.03.09-.07.17-.13.26-.2.03-.02.06-.04.09-.06.08-.06.16-.11.24-.16.13-.08.25-.17.38-.26.03.03.05.05.08.08,0,.02-.02.03-.03.05h0c-.03.06-.06.12-.1.18-.06.07-.12.15-.18.23-.1.16-.21.32-.32.47-.28.4-.56.8-.76,1.24,0,.01-.01.03-.02.04-.28.65-.13,1.24.38,1.57.15.09.32.17.52.22,1.1.26,2.22.44,3.34.61,0,0,.01,0,.02,0,.16.03.32.05.48.07.63.1,1.27.14,1.9.25.1.02.21.04.31.06Z"/><path d="M75.89,141.16c-.76.07-1.51.11-2.27.21-.14.02-.28.04-.42.06,0,0-.01,0-.02,0-1,.14-1.99.29-2.99.46-.36.06-.66.19-.89.38,0,0-.01,0-.02.02-.42.36-.56.92-.34,1.55.03.08.06.17.11.26.17.34.4.66.63.97.01.01.02.03.03.04.13.17.26.35.39.52.07.11.16.21.25.31,0,0,0,.01.01.02h-.26c-.07-.04-.13-.09-.2-.13-.06-.04-.13-.08-.19-.12-.55-.35-1.09-.74-1.68-.99-.18-.08-.36-.13-.53-.14-.65-.06-1.18.33-1.31,1.09-.02.12-.04.23-.06.35-.12.73-.23,1.47-.33,2.21-.13.94-.24,1.89-.37,2.83-.02.13-.02.27-.08.41h0s-.02.06-.04.09c0,.02-.02.03-.03.05,0-.05-.01-.09-.01-.14,0,0,0,0,0,0-.05-.5-.09-.99-.17-1.48-.09-.58-.18-1.17-.28-1.76-.12-.73-.24-1.46-.37-2.18-.02-.1-.03-.19-.05-.29-.13-.69-.66-1.14-1.27-1.17-.23-.01-.47.04-.7.15-.53.26-1.01.64-1.5.98-.05.03-.09.07-.14.1-.12.08-.22.18-.34.28,0,0-.01-.01-.02-.02.08-.12.17-.23.24-.35.04-.06.08-.13.12-.19.35-.55.74-1.09.99-1.68.08-.18.13-.36.14-.53.06-.65-.33-1.18-1.09-1.31-.85-.15-1.7-.27-2.56-.39-.94-.13-1.89-.24-2.83-.37-.13-.02-.27-.02-.41-.08h0s-.06-.03-.09-.04c-.02,0-.03-.02-.05-.03.05,0,.09-.01.14-.01,0,0,0,0,0,0,.5-.05.99-.09,1.48-.17.58-.09,1.17-.18,1.76-.28.83-.13,1.65-.27,2.47-.42.69-.13,1.14-.66,1.17-1.27.01-.23-.04-.47-.15-.7-.26-.53-.64-1.01-.98-1.5-.03-.05-.07-.09-.1-.14-.09-.14-.22-.26-.33-.39.02-.02.04-.05.06-.07.13.11.26.23.41.33.16.1.32.21.47.32.4.28.8.56,1.24.76.01,0,.03.01.04.02.65.28,1.24.13,1.57-.38.09-.15.17-.32.22-.52.26-1.1.44-2.22.61-3.34,0,0,0-.01,0-.02.03-.16.05-.32.07-.48.1-.63.14-1.27.25-1.9.02-.1.04-.21.06-.31.07.76.11,1.51.21,2.27.02.14.04.28.06.42,0,0,0,.01,0,.02.14,1,.29,1.99.46,2.99.06.36.19.66.38.89,0,0,0,.01.02.02.36.42.92.56,1.55.34.08-.03.17-.06.26-.11.34-.17.66-.4.97-.63.01-.01.03-.02.04-.03.09-.07.17-.13.26-.2.03-.02.06-.04.09-.06.08-.06.16-.11.24-.16.13-.08.25-.17.38-.26.03.03.05.05.08.08,0,.02-.02.03-.03.05h0c-.03.06-.06.12-.1.18-.06.07-.12.15-.18.23-.1.16-.21.32-.32.47-.28.4-.56.8-.76,1.24,0,.01-.01.03-.02.04-.28.65-.13,1.24.38,1.57.15.09.32.17.52.22,1.1.26,2.22.44,3.34.61,0,0,.01,0,.02,0,.16.03.32.05.48.07.63.1,1.27.14,1.9.25.1.02.21.04.31.06Z"/><path d="M141.06,152.99c-.87.96-1.91,1.8-2.99,2.53-.91.62-1.74-.48-1.58-1.37,0-.02,0-.04.01-.06.04-.17.12-.33.21-.49,1.36-2.49,3.58-4.7,5.45-6.81.58-.65,1.31-1.2,2.06-1.65.66-.4,1.02-.11.93.65-.05.43-.22.87-.41,1.27-1.02,2.1-2.11,4.18-3.68,5.92Z"/><path d="M143.22,157.57c-.05-.76-.14-1.56.05-2.27.57-2.12,1.22-4.22,1.93-6.3.33-.96.83-1.86,1.31-2.76.09-.17.47-.28.68-.25.16.03.36.32.4.52.06.34.07.73-.01,1.06-.63,2.52-1.25,5.04-1.97,7.53-.29,1.02-.6,2.06-1.45,2.92-.22.22-.59.18-.77-.07-.09-.13-.17-.26-.18-.39Z"/><path d="M147.48,152.55c.09-.19.25-.35.35-.54.11,0,.22.02.33.03.19.02.43,1.31.48,1.48.16.6.31,1.19.45,1.8.27,1.18.48,2.37.65,3.57.07.53.24,1.29-.23,1.66-.39.32-.93.39-1.42.45-.4.05-.82.07-1.19-.07-.3-.11-.53-.34-.66-.62-.07-.16-.1-.33-.1-.52.05-2.19.59-4.27,1.12-6.39.07-.28.11-.61.23-.87Z"/><path d="M152.1,145.37c.75.45,1.48,1,2.06,1.65,1.87,2.11,4.09,4.32,5.45,6.81.08.16.17.31.21.49,0,.02,0,.04.01.06.16.89-.68,1.98-1.58,1.37-1.08-.73-2.12-1.57-2.99-2.53-1.57-1.74-2.66-3.82-3.68-5.92-.19-.4-.36-.84-.41-1.27-.09-.76.27-1.04.93-.65Z"/><path d="M150.7,155.33c-.71-2.49-1.33-5.01-1.97-7.53-.08-.34-.07-.72-.01-1.06.04-.2.23-.49.4-.52.22-.04.59.08.68.25.48.9.98,1.8,1.31,2.76.71,2.08,1.36,4.18,1.93,6.3.19.71.1,1.52.05,2.27,0,.13-.08.26-.18.39-.18.25-.55.3-.77.07-.84-.86-1.16-1.91-1.45-2.92Z"/><path d="M147.77,104.66c-1.4.17-2.13,1.13-2.7,2.33-.77,1.62-1.95,2.91-3.72,3.38-.69.18-1.39.29-2.09.37-.34.04-.69.07-1.02.12-.35.06-.71.07-1.05-.04-.38-.12-.7-.37-1-.61-.29-.24-.64-.46-.79-.82-.18-.43.04-.66.41-.58.3.07.6.17.89.27.36.13.72.27,1.08.39-.03-.51-.23-1.05-.85-1.31-.22-.09-.45-.17-.67-.22-.48-.11-.97-.08-1.42.28-.65.53-.54,1.67.43,2.41.46.35.95.69,1.48.91.54.22,1.08.33,1.67.32,1.08-.01,2.18-.23,3.21-.53,1.13-.33,2.04-.97,2.79-1.8.41,2.05-.73,4.22-2.18,5.23-.06.01-.13.02-.19.04-.23.04-.45.07-.67.12-1.5.29-2.97.67-4.39,1.15-7.8,2.57-14.4,7.8-18.72,14.62,0,0,0,0,0,0h0c-.49.78-.95,1.57-1.38,2.38-.89,1.68-1.65,3.44-2.26,5.27h0c-.13.39-.25.78-.36,1.17-.94,3.17-1.44,6.51-1.44,9.98,0,1.47.09,2.91.27,4.34.09.77.21,1.53.36,2.28.04.19.08.39.12.58.09.43.19.85.29,1.28.08-.63.19-1.25.31-1.86.94-4.83,2.89-9.29,5.63-13.18,1.66-2.37,3.62-4.52,5.82-6.4.54-.34,1.07-.67,1.61-1.01-.24.55-.52,1.12-.76,1.7-.21.51-.17,1.08.31,1.33.29.15.88.07,1.15-.14.86-.69,1.64-1.48,2.44-2.24.29-.28.55-.59.95-1.02-.21.66-.45,1.11-.47,1.56-.01.35.19.78.45,1.03.13.13.64.02.88-.13.73-.48,1.41-1.04,2.11-1.57.65.99.73,1.07,1.36.5,1.58-1.43,3.1-2.92,4.6-4.43.51-.51.88-1.14,1.4-1.84.19,1.37.43,2.59.5,3.8.08,1.41-.09,2.83.06,4.23.11,1.05-.45,1.57-1.1,2.13-1.56,1.34-3.18,2.61-4.69,4.01-1.53,1.42-2.48,3.25-3.17,5.21-.28.79-.26,1.61.39,2.17.64.55,1.45.3,2.08-.1.88-.56,1.76-1.17,2.5-1.9,2.26-2.24,4.11-4.79,5.42-7.71.16-.36.27-.78.25-1.17-.11-2.02-.23-4.05-.43-6.07-.18-1.87-.45-3.72-.74-5.57-.03-.2-.16-.4-.3-.59-.1-.13-.2-.25-.28-.39-.26.19-.59.34-.8.58-.02.02-.04.05-.06.07-1.35,1.9-2.74,3.74-4.58,5.23.1-.34.29-.64.38-.97.07-.24.02-.52.03-.79-.3.06-.69.01-.89.19-.64.55-1.19,1.2-1.81,1.77-.63.57-1.31,1.08-1.97,1.63-.05-.32.01-.54.09-.75.29-.83.63-1.64.86-2.48.08-.29-.09-.65-.14-.98-.33.15-.66.29-.99.45-.04.02-.05.08-.08.12-1.41,1.73-2.74,3.54-4.65,4.9.11-.28.18-.53.3-.75.49-.82,1.02-1.6,1.5-2.43.08-.15.15-.3.21-.47.09-.23.16-.48.25-.71-.08-.08-.11-.11-.17-.17-.37.22-.72.45-1.08.69h0s0,0-.01,0c-.4.26-.78.54-1.17.82,0,0,0,0,0,0,0,0,0,0,0,0-.81.58-1.59,1.21-2.35,1.86,0,0-.01.01-.02.01s0,0-.01,0c0,0-.01,0-.01.01-.82.71-1.6,1.45-2.34,2.23-.51.53-1,1.08-1.48,1.64-3.43,4.06-5.96,8.9-7.28,14.21-.02-.13-.04-.27-.06-.41.72-5.7,2.83-10.97,5.99-15.46,2.41-3.43,5.43-6.4,8.9-8.75h0c.12-.2.16-.46.01-.83-.06.03-.12.06-.17.08h0s0,0-.01,0c-.25.12-.5.23-.72.39-.17.12-.31.28-.45.43,0,0,0,0,0,0,0,0,0,0,0,0-.81.58-1.59,1.21-2.35,1.86,0,0-.01.01-.02.01s0,0-.01,0c0,0-.01,0-.01.01-1.37,1.19-2.65,2.48-3.82,3.87-3.71,4.38-6.36,9.68-7.57,15.5-.02-.49-.04-.99-.04-1.48,0-3.57.55-7.02,1.56-10.26.14-.46.3-.91.46-1.36.79-2.21,1.8-4.31,3.01-6.28h0c.53-.87,1.09-1.7,1.69-2.51t0,0c3.55-4.81,8.32-8.67,13.85-11.12,2.54-1.13,5.24-1.96,8.07-2.44h.01c1.93-.14,3.86-.22,5.81-.22s3.89.07,5.82.22h.02s.01,0,.02,0c2.9.49,5.68,1.36,8.28,2.54,5.33,2.41,9.94,6.13,13.42,10.75.64.84,1.24,1.71,1.79,2.61,1.24,2.01,2.29,4.15,3.1,6.41.17.46.32.93.47,1.4,1.01,3.25,1.56,6.7,1.56,10.27,0,.5-.01.99-.04,1.48-1.22-5.87-3.91-11.21-7.67-15.62-1.48-1.74-3.14-3.34-4.93-4.76-.07-.06-.14-.11-.21-.17-.19-.15-.37-.3-.56-.45-.24-.19-.42-.47-.68-.65-.27-.19-.59-.31-.9-.48,0,0,0,.01,0,.02-.17.43-.08.7.1.92,3.44,2.38,6.44,5.37,8.81,8.82,3.07,4.43,5.12,9.62,5.83,15.22-.02.14-.04.28-.06.41-1.33-5.37-3.9-10.25-7.38-14.33-.48-.56-.98-1.11-1.48-1.64-1.08-1.12-2.23-2.16-3.45-3.12-.07-.06-.14-.11-.21-.17-.7-.55-1.41-1.07-2.15-1.56-.3-.2-.61-.4-.93-.59-.05.04-.07.07-.14.14.1.26.17.52.27.78.05.14.11.27.19.4.47.83,1.01,1.61,1.5,2.43.13.21.19.46.3.75-1.91-1.36-3.24-3.17-4.65-4.9-.03-.04-.04-.1-.08-.12-.33-.15-.66-.3-.99-.45-.06.33-.22.69-.14.98.23.84.57,1.66.86,2.48.07.22.14.43.09.75-.66-.54-1.34-1.06-1.97-1.63-.63-.57-1.17-1.22-1.81-1.77-.2-.17-.59-.13-.89-.19,0,.26-.04.54.03.79.1.33.28.63.38.97-1.84-1.48-3.24-3.32-4.58-5.23-.03-.04-.06-.08-.1-.11-.21-.21-.52-.36-.76-.54-.07.12-.17.24-.25.35-.15.2-.29.4-.32.62-.29,1.85-.55,3.71-.74,5.57-.2,2.02-.31,4.05-.43,6.07-.02.39.09.81.25,1.17,1.3,2.92,3.15,5.47,5.42,7.71.74.73,1.62,1.34,2.5,1.9.63.4,1.43.65,2.08.1.65-.56.66-1.38.39-2.17-.69-1.96-1.64-3.78-3.17-5.21-1.51-1.4-3.13-2.67-4.69-4.01-.65-.55-1.2-1.08-1.1-2.13.14-1.4-.03-2.82.06-4.23.07-1.22.31-2.43.5-3.8.52.69.89,1.33,1.4,1.84,1.5,1.51,3.02,3,4.6,4.43.63.57.71.48,1.36-.5.7.53,1.38,1.08,2.11,1.57.24.16.74.26.88.13.25-.25.46-.68.45-1.03-.01-.45-.25-.89-.47-1.56.4.43.66.75.95,1.02.8.76,1.58,1.55,2.44,2.24.27.21.86.3,1.15.14.49-.25.53-.82.31-1.33-.24-.58-.51-1.15-.76-1.7.41.25.81.51,1.22.76,2.36,1.99,4.44,4.28,6.19,6.82,2.65,3.83,4.54,8.21,5.46,12.94.12.61.22,1.24.31,1.87.11-.42.2-.85.29-1.28.04-.19.08-.39.12-.58.14-.75.26-1.51.36-2.28.18-1.42.27-2.87.27-4.34,0-3.46-.5-6.8-1.44-9.96-.12-.4-.24-.8-.37-1.19-.64-1.9-1.43-3.73-2.37-5.47-.42-.79-.88-1.57-1.37-2.32-4.32-6.74-10.88-11.91-18.62-14.46-.02,0-.04-.01-.06-.01.01,0,.03,0,.05,0-1.43-.48-2.91-.86-4.42-1.14-.22-.05-.44-.08-.66-.12-.03,0-.06-.01-.09-.02-.12-.08-.23-.16-.34-.25-.95-.76-1.52-1.92-1.92-3.23-.12-.41-.21-.82-.29-1.24-.23-1.16,1.04-2.14,2.34-1.81.7.18,1.37.45,2.06.63.22.06.47-.05.71-.08-.08-.22-.11-.48-.25-.65-.44-.54-.91-1.06-1.4-1.55-.69-.71-1.58-1.02-2.54-1.02-.66,0-1.19-.14-1.7-.6-.78-.72-1.78-.44-2.7-.33Z"/><path d="M140.2,104.54c.81.01,1.27.65,1.19,1.54-.07.71-.6,1.09-1.53.99.27-.19.49-.33.67-.49.35-.31.49-.67.14-1.07-.32-.36-1.37-.35-1.82,0-.49.38-.64.99-.3,1.54.81,1.31,2.2,1.85,3.84.86.46-.28.88-.62,1.32-.93.05.04.09.08.13.13-.04.18-.03.4-.13.54-1.25,1.7-3.36,2.44-5.19,1-1.16-.91-1.26-2.89-.26-3.76.59-.51,1.27-.37,1.93-.36Z"/><path d="M154.9,191.61c.87-.96,1.91-1.8,2.99-2.53.91-.62,1.74.48,1.58,1.37,0,.02,0,.04-.01.06-.04.17-.12.33-.21.49-1.36,2.49-3.58,4.7-5.45,6.81-.58.65-1.31,1.2-2.06,1.65-.66.4-1.02.11-.93-.65.05-.43.22-.87.41-1.27,1.02-2.1,2.11-4.18,3.68-5.92Z"/><path d="M152.74,187.03c.05.76.14,1.56-.05,2.27-.57,2.12-1.22,4.22-1.93,6.3-.33.96-.83,1.86-1.31,2.76-.09.17-.47.28-.68.25-.16-.03-.36-.32-.4-.52-.06-.34-.07-.73.01-1.06.63-2.52,1.25-5.04,1.97-7.53.29-1.02.6-2.06,1.45-2.92.22-.22.59-.18.77.07.09.13.17.26.18.39Z"/><path d="M148.47,192.04c-.09.19-.25.35-.35.54-.11,0-.22-.02-.33-.03-.19-.02-.43-1.31-.48-1.48-.16-.6-.31-1.19-.45-1.8-.27-1.18-.48-2.37-.65-3.57-.07-.53-.24-1.29.23-1.66.39-.32.93-.39,1.42-.45.4-.05.82-.07,1.19.07.3.11.53.34.66.62.07.16.1.33.1.52-.05,2.19-.59,4.27-1.12,6.39-.07.28-.11.61-.23.87Z"/><path d="M143.86,199.22c-.75-.45-1.48-1-2.06-1.65-1.87-2.11-4.09-4.32-5.45-6.81-.08-.16-.17-.31-.21-.49,0-.02,0-.04-.01-.06-.16-.89.68-1.98,1.58-1.37,1.08.73,2.12,1.57,2.99,2.53,1.57,1.74,2.66,3.82,3.68,5.92.19.4.36.84.41,1.27.09.76-.27,1.04-.93.65Z"/><path d="M145.25,189.27c.71,2.49,1.33,5.01,1.97,7.53.08.34.07.72.01,1.06-.04.2-.23.49-.4.52-.22.04-.59-.08-.68-.25-.48-.9-.98-1.8-1.31-2.76-.71-2.08-1.36-4.18-1.93-6.3-.19-.71-.1-1.52-.05-2.27,0-.13.08-.26.18-.39.18-.25.55-.3.77-.07.84.86,1.16,1.91,1.45,2.92Z"/><path d="M148.18,239.93c1.4-.17,2.13-1.13,2.7-2.33.77-1.62,1.95-2.91,3.72-3.38.69-.18,1.39-.29,2.09-.37.34-.04.69-.07,1.02-.12.35-.06.71-.07,1.05.04.38.12.7.37,1,.61.29.24.64.46.79.82.18.43-.04.66-.41.58-.3-.07-.6-.17-.89-.27-.36-.13-.72-.27-1.08-.39.03.51.23,1.05.85,1.31.22.09.45.17.67.22.48.11.97.08,1.42-.28.65-.53.54-1.67-.43-2.41-.46-.35-.95-.69-1.48-.91-.54-.22-1.08-.33-1.67-.32-1.08.01-2.18.23-3.21.53-1.13.33-2.04.97-2.79,1.8-.41-2.05.73-4.22,2.18-5.23.06-.01.13-.02.19-.04.23-.04.45-.07.67-.12,1.5-.29,2.97-.67,4.39-1.15,7.8-2.57,14.4-7.8,18.72-14.62,0,0,0,0,0,0h0c.49-.78.95-1.57,1.38-2.38.89-1.68,1.65-3.44,2.26-5.27h0c.13-.39.25-.78.36-1.17.94-3.17,1.44-6.51,1.44-9.98,0-1.47-.09-2.91-.27-4.34-.09-.77-.21-1.53-.36-2.28-.04-.19-.08-.39-.12-.58-.09-.43-.19-.85-.29-1.28-.08.63-.19,1.25-.31,1.86-.94,4.83-2.89,9.29-5.63,13.18-1.66,2.37-3.62,4.52-5.82,6.4-.54.34-1.07.67-1.61,1.01.24-.55.52-1.12.76-1.7.21-.51.17-1.08-.31-1.33-.29-.15-.88-.07-1.15.14-.86.69-1.64,1.48-2.44,2.24-.29.28-.55.59-.95,1.02.21-.66.45-1.11.47-1.56.01-.35-.19-.78-.45-1.03-.13-.13-.64-.02-.88.13-.73.48-1.41,1.04-2.11,1.57-.65-.99-.73-1.07-1.36-.5-1.58,1.43-3.1,2.92-4.6,4.43-.51.51-.88,1.14-1.4,1.84-.19-1.37-.43-2.59-.5-3.8-.08-1.41.09-2.83-.06-4.23-.11-1.05.45-1.57,1.1-2.13,1.56-1.34,3.18-2.61,4.69-4.01,1.53-1.42,2.48-3.25,3.17-5.21.28-.79.26-1.61-.39-2.17-.64-.55-1.45-.3-2.08.1-.88.56-1.76,1.17-2.5,1.9-2.26,2.24-4.11,4.79-5.42,7.71-.16.36-.27.78-.25,1.17.11,2.02.23,4.05.43,6.07.18,1.87.45,3.72.74,5.57.03.2.16.4.3.59.1.13.2.25.28.39.26-.19.59-.34.8-.58.02-.02.04-.05.06-.07,1.35-1.9,2.74-3.74,4.58-5.23-.1.34-.29.64-.38.97-.07.24-.02.52-.03.79.3-.06.69-.01.89-.19.64-.55,1.19-1.2,1.81-1.77.63-.57,1.31-1.08,1.97-1.63.05.32-.01.54-.09.75-.29.83-.63,1.64-.86,2.48-.08.29.09.65.14.98.33-.15.66-.29.99-.45.04-.02.05-.08.08-.12,1.41-1.73,2.74-3.54,4.65-4.9-.11.28-.18.53-.3.75-.49.82-1.02,1.6-1.5,2.43-.08.15-.15.3-.21.47-.09.23-.16.48-.25.71.08.08.11.11.17.17.37-.22.72-.45,1.08-.69h0s0,0,.01,0c.4-.26.78-.54,1.17-.82,0,0,0,0,0,0,0,0,0,0,0,0,.81-.58,1.59-1.21,2.35-1.86,0,0,.01-.01.02-.01s0,0,.01,0c0,0,.01,0,.01-.01.82-.71,1.6-1.45,2.34-2.23.51-.53,1-1.08,1.48-1.64,3.43-4.06,5.96-8.9,7.28-14.21.02.13.04.27.06.41-.72,5.7-2.83,10.97-5.99,15.46-2.41,3.43-5.43,6.4-8.9,8.75h0c-.12.2-.16.46-.01.83.06-.03.12-.06.17-.08h0s0,0,.01,0c.25-.12.5-.23.72-.39.17-.12.31-.28.45-.43,0,0,0,0,0,0,0,0,0,0,0,0,.81-.58,1.59-1.21,2.35-1.86,0,0,.01-.01.02-.01s0,0,.01,0c0,0,.01,0,.01-.01,1.37-1.19,2.65-2.48,3.82-3.87,3.71-4.38,6.36-9.68,7.57-15.5.02.49.04.99.04,1.48,0,3.57-.55,7.02-1.56,10.26-.14.46-.3.91-.46,1.36-.79,2.21-1.8,4.31-3.01,6.28h0c-.53.87-1.09,1.7-1.69,2.51t0,0c-3.55,4.81-8.32,8.67-13.85,11.12-2.54,1.13-5.24,1.96-8.07,2.44h-.01c-1.93.14-3.86.22-5.81.22s-3.89-.07-5.82-.22h-.02s-.01,0-.02,0c-2.9-.49-5.68-1.36-8.28-2.54-5.33-2.41-9.94-6.13-13.42-10.75-.64-.84-1.24-1.71-1.79-2.61-1.24-2.01-2.29-4.15-3.1-6.41-.17-.46-.32-.93-.47-1.4-1.01-3.25-1.56-6.7-1.56-10.27,0-.5.01-.99.04-1.48,1.22,5.87,3.91,11.21,7.67,15.62,1.48,1.74,3.14,3.34,4.93,4.76.07.06.14.11.21.17.19.15.37.3.56.45.24.19.42.47.68.65.27.19.59.31.9.48,0,0,0-.01,0-.02.17-.43.08-.7-.1-.92-3.44-2.38-6.44-5.37-8.81-8.82-3.07-4.43-5.12-9.62-5.83-15.22.02-.14.04-.28.06-.41,1.33,5.37,3.9,10.25,7.38,14.33.48.56.98,1.11,1.48,1.64,1.08,1.12,2.23,2.16,3.45,3.12.07.06.14.11.21.17.7.55,1.41,1.07,2.15,1.56.3.2.61.4.93.59.05-.04.07-.07.14-.14-.1-.26-.17-.52-.27-.78-.05-.14-.11-.27-.19-.4-.47-.83-1.01-1.61-1.5-2.43-.13-.21-.19-.46-.3-.75,1.91,1.36,3.24,3.17,4.65,4.9.03.04.04.1.08.12.33.15.66.3.99.45.06-.33.22-.69.14-.98-.23-.84-.57-1.66-.86-2.48-.07-.22-.14-.43-.09-.75.66.54,1.34,1.06,1.97,1.63.63.57,1.17,1.22,1.81,1.77.2.17.59.13.89.19,0-.26.04-.54-.03-.79-.1-.33-.28-.63-.38-.97,1.84,1.48,3.24,3.32,4.58,5.23.03.04.06.08.1.11.21.21.52.36.76.54.07-.12.17-.24.25-.35.15-.2.29-.4.32-.62.29-1.85.55-3.71.74-5.57.2-2.02.31-4.05.43-6.07.02-.39-.09-.81-.25-1.17-1.3-2.92-3.15-5.47-5.42-7.71-.74-.73-1.62-1.34-2.5-1.9-.63-.4-1.43-.65-2.08-.1-.65.56-.66,1.38-.39,2.17.69,1.96,1.64,3.78,3.17,5.21,1.51,1.4,3.13,2.67,4.69,4.01.65.55,1.2,1.08,1.1,2.13-.14,1.4.03,2.82-.06,4.23-.07,1.22-.31,2.43-.5,3.8-.52-.69-.89-1.33-1.4-1.84-1.5-1.51-3.02-3-4.6-4.43-.63-.57-.71-.48-1.36.5-.7-.53-1.38-1.08-2.11-1.57-.24-.16-.74-.26-.88-.13-.25.25-.46.68-.45,1.03.01.45.25.89.47,1.56-.4-.43-.66-.75-.95-1.02-.8-.76-1.58-1.55-2.44-2.24-.27-.21-.86-.3-1.15-.14-.49.25-.53.82-.31,1.33.24.58.51,1.15.76,1.7-.41-.25-.81-.51-1.22-.76-2.36-1.99-4.44-4.28-6.19-6.82-2.65-3.83-4.54-8.21-5.46-12.94-.12-.61-.22-1.24-.31-1.87-.11.42-.2.85-.29,1.28-.04.19-.08.39-.12.58-.14.75-.26,1.51-.36,2.28-.18,1.42-.27,2.87-.27,4.34,0,3.46.5,6.8,1.44,9.96.12.4.24.8.37,1.19.64,1.9,1.43,3.73,2.37,5.47.42.79.88,1.57,1.37,2.32,4.32,6.74,10.88,11.91,18.62,14.46.02,0,.04.01.06.01-.01,0-.03,0-.05,0,1.43.48,2.91.86,4.42,1.14.22.05.44.08.66.12.03,0,.06.01.09.02.12.08.23.16.34.25.95.76,1.52,1.92,1.92,3.23.12.41.21.82.29,1.24.23,1.16-1.04,2.14-2.34,1.81-.7-.18-1.37-.45-2.06-.63-.22-.06-.47.05-.71.08.08.22.11.48.25.65.44.54.91,1.06,1.4,1.55.69.71,1.58,1.02,2.54,1.02.66,0,1.19.14,1.7.6.78.72,1.78.44,2.7.33Z"/><path d="M155.76,240.05c-.81-.01-1.27-.65-1.19-1.54.07-.71.6-1.09,1.53-.99-.27.19-.49.33-.67.49-.35.31-.49.67-.14,1.07.32.36,1.37.35,1.82,0,.49-.38.64-.99.3-1.54-.81-1.31-2.2-1.85-3.84-.86-.46.28-.88.62-1.32.93-.05-.04-.09-.08-.13-.13.04-.18.03-.4.13-.54,1.25-1.7,3.36-2.44,5.19-1,1.16.91,1.26,2.89.26,3.76-.59.51-1.27.37-1.93.36Z"/></svg>