<?xml version="1.0" encoding="UTF-8"?><svg id="Layer_1" xmlns="http://www.w3.org/2000/svg" viewBox="0 0 281.07 213.37"><defs><style>.cls-1{fill:#d5ddea;}</style></defs><path class="cls-1" d="M68.52,51.68c0,4.4-3.57,7.72-7.95,7.72h-9.62v4c0,3.2.99,4.9,1.38,5.43l.13.17h-7.62l.13-.17c.39-.52,1.38-2.23,1.38-5.43v-14.07c0-3.95-1.51-5.59-1.51-5.59h15.72c2.19,0,4.17.88,5.61,2.32,1.44,1.44,2.34,3.42,2.34,5.63ZM63.93,51.68c0-3.35-2.73-6.47-6.08-6.47h-6.92l.02,12.69h6.91c1.68,0,3.2-.69,4.3-1.78,1.09-1.1,1.78-2.76,1.78-4.44Z"/><path class="cls-1" d="M87.38,68.98v-.11c0-1.81-.41-3.61-1.2-5.24l-.6-1.21h-13.68l-1.26,2.6c-.6,1.23-.79,2.62-.52,3.97h-4.38c1.25-.73,2.25-1.81,2.88-3.11l7.79-16.23c.9-1.88.89-4.06-.03-5.92h5.29l10.61,22.02c.64,1.33,1.66,2.47,2.94,3.24h-7.84ZM84.85,60.92l-6.17-12.54-6.05,12.54h12.22Z"/><path class="cls-1" d="M122.97,68.98h-4.88c-1.47,0-2.85-.7-3.71-1.88l-4.44-6.17c-.87-1.18-2.24-1.87-3.7-1.87-1.99,0-3.61,1.62-3.61,3.61v.72c0,3.2.99,4.9,1.38,5.43l.13.17h-7.62l.13-.17c.39-.52,1.38-2.23,1.38-5.43v-14.07c0-3.95-1.51-5.59-1.51-5.59h15.72c2.19,0,4.17.88,5.61,2.32,1.44,1.44,2.34,3.42,2.34,5.63,0,4.02-3,6.98-6.87,7.43.8.32,1.5.84,2.02,1.55l3.48,4.73c1.08,1.5,2.51,2.71,4.14,3.59ZM115.61,51.68c0-3.35-2.73-6.46-6.08-6.46h-6.92l.02,12.35h6.91c3.35,0,6.08-2.54,6.08-5.89Z"/><path class="cls-1" d="M144.84,68.98v-.11c0-1.81-.41-3.61-1.2-5.24l-.6-1.21h-13.68l-1.26,2.6c-.6,1.23-.79,2.62-.52,3.97h-4.38c1.25-.73,2.25-1.81,2.88-3.11l7.79-16.23c.9-1.88.89-4.06-.03-5.92h5.29l10.61,22.02c.64,1.33,1.66,2.47,2.94,3.24h-7.84ZM142.3,60.92l-6.17-12.54-6.05,12.54h12.22Z"/><path class="cls-1" d="M177.33,63.44s-.02.02-.02.04c-.75,1.96-4.23,6.2-12.54,6.2s-13.28-5.99-13.32-13.34c-.04-7.37,4.72-13.25,13.28-13.28,5.77-.04,10.65,2.48,12.39,6.54.67,1.55-.49,3.29-2.18,3.3l-2.25.02c1.31-4.92-5.18-9.35-10.25-8.19-5.74,1.33-7.15,8.57-6.12,13.3,1.07,4.72,4.4,10.16,11.11,10.16h.04c2.91,0,4-3.03,4-5.28-.01-2.13-1.42-4.01-3.46-4.62l-2.83-.84h12.11l.02,6Z"/><path class="cls-1" d="M207.06,56.36c0,7.36-6.02,13.32-13.45,13.32s-13.45-5.96-13.45-13.32,6.02-13.32,13.45-13.32,13.45,5.96,13.45,13.32ZM201.91,53.28c-2.6-7.03-7.83-9.7-12.42-8.01-4.59,1.7-6.69,7.48-4.22,14.16,2.47,6.68,7.83,9.71,12.42,8.01,4.59-1.7,6.69-7.48,4.22-14.16Z"/><path class="cls-1" d="M236.23,43.72l-.13.17c-.34.45-1.14,1.8-1.35,4.25v.22c-.02.28-.02.58-.02.88v19.74h-1.96c-1.16,0-2.26-.54-2.98-1.46l-17.19-22.18v18.12c0,.38.02.76.03,1.14.21,2.42,1.01,3.76,1.34,4.21l.13.17h-4.51l.13-.17c.34-.45,1.14-1.81,1.35-4.29v-.04c.02-.37.02-.73.02-1.1v-14.07c0-.37,0-.73-.02-1.1v-.04c-.21-2.47-1.01-3.84-1.35-4.28l-.13-.17h6.62c.58,0,1.12.26,1.48.73l10.38,13.42,5.15,6.64v-15.2c0-3.2-.99-4.9-1.38-5.43l-.13-.17h4.51Z"/><path class="cls-1" d="M86.78,109.19c.34,3.3-1.14,6.03-4.88,7.89-5.02,2.49-9.28.21-11.42-4.1-2.14-4.31-1.3-9.01,3.72-11.5,3.35-1.67,6.63-1.47,8.82.36.88.73.75,2.12-.25,2.62l-.8.4c-.65-3.27-6.01-3.93-8.65-1.78-3,2.43-1.96,7.27,0,9.74,1.97,2.47,5.94,4.23,9.6,2.41,3.24-1.61,3.86-6.03,3.86-6.03Z"/><path class="cls-1" d="M102.65,99.55c1.58,4.54-.6,9.42-5.18,11.02-4.59,1.6-9.32-.88-10.9-5.42-1.58-4.54.59-9.42,5.18-11.02,4.59-1.6,9.32.88,10.91,5.42ZM99.31,98.51c-3.09-3.8-7.15-4.22-9.63-2.2-2.48,2.02-2.73,6.27.21,9.87,2.94,3.61,7.15,4.22,9.62,2.2,2.48-2.02,2.73-6.27-.21-9.87Z"/><path class="cls-1" d="M119.4,87.54l-.06.13c-.16.33-.49,1.3-.3,2.9l.03.14c.02.18.06.37.1.57l2.61,12.64-.79.16c-.74.15-1.52-.05-2.1-.54l-14.23-12.15,2.45,11.87c.05.24.12.48.18.72.45,1.53,1.14,2.28,1.41,2.52l.11.09-2.83.58.06-.13c.16-.33.49-1.31.3-2.92,0,0,0-.01,0-.02-.04-.24-.08-.47-.13-.71l-1.86-9.01c-.05-.24-.1-.47-.16-.7,0-.01,0-.02,0-.02-.46-1.55-1.15-2.32-1.43-2.57l-.11-.09,3.73-.77c.37-.08.75.02,1.04.27l12.93,11.04-2.07-10.03c-.42-2.05-1.28-3.01-1.6-3.29l-.11-.09,2.83-.58Z"/><path class="cls-1" d="M139.27,98.03c-.93,3.18-3.33,5.16-7.5,5.46-5.59.41-8.67-3.32-9.02-8.12-.36-4.8,2.2-8.84,7.79-9.25,3.73-.28,6.69,1.14,8.03,3.66.54,1.01-.1,2.25-1.22,2.33l-.89.07c.63-3.28-4.08-5.91-7.34-4.92-3.69,1.12-4.56,5.99-3.67,9.02.89,3.03,3.9,6.16,7.97,5.86,3.61-.27,5.85-4.12,5.85-4.12Z"/><path class="cls-1" d="M144.04,99.04c-.02,2.58.96,3.67.96,3.67l-4.43-.04s1-1.07,1.02-3.65l.08-9.2c.02-2.58-.96-3.67-.96-3.67l4.43.04s-1,1.07-1.02,3.65l-.09,9.2Z"/><path class="cls-1" d="M160.18,101.08l-.23,2.68-13.79-1.17.1-.1c.28-.32,1.02-1.37,1.2-3.46l.78-9.16c.01-.16.03-.32.03-.46.08-2.25-.71-3.26-.71-3.26l12.97,1.1-.23,2.68c-1.04-1.23-2.52-1.99-4.12-2.13l-5.27-.45-.57,6.7,5.31.45c.86.07,1.73-.06,2.53-.38l.62-.25-.23,2.68-.59-.36c-.73-.44-1.54-.71-2.39-.78l-5.34-.45-.59,7.01,6.1.52c1.6.13,3.18-.37,4.41-1.41Z"/><path class="cls-1" d="M177.2,107.16l-2.88-.58c-.94-.19-1.74-.82-2.14-1.69l-2.06-4.45c-.4-.87-1.41-1.68-2.35-1.87-1.28-.26-2.79.51-3.05,1.79l-.11.53c-.41,2.05,0,3.27.18,3.66l.06.12-4.36-.88.11-.09c.32-.29,1.18-1.25,1.59-3.3l1.83-9.02c.51-2.53-.25-3.78-.25-3.78l9.56,1.93c1.4.28,2.56,1.1,3.3,2.22.74,1.11,1.06,2.5.77,3.91-.52,2.58-2.83,4.09-5.37,3.87.47.31.85.73,1.09,1.26l1.62,3.49c.5,1.1,1.53,2.12,2.46,2.89ZM174.98,95.16c.54-2.68-.9-4.55-3.05-4.99l-4.96-1-1.6,7.97,4.94,1c2.15.43,4.23-.84,4.66-2.98Z"/><path class="cls-1" d="M193.11,108.71s-.02,0-.02.02c-.87,1.07-3.63,3.07-8.78,1.36-5.32-1.76-6.75-6.36-5.26-10.94,1.49-4.58,5.39-7.34,10.72-5.6,3.59,1.16,5.82,3.64,6.07,6.52.09,1.1-.98,1.94-2.03,1.6l-.86-.27c1.83-2.78-1.53-7.02-4.92-7.34-3.84-.36-6.49,3.81-6.83,6.96-.31,3.15,1.18,7.48,5.06,8.74,0,0,.01,0,.02,0,1.68.56,3.23-.54,3.85-2.42.43-1.33-.05-2.78-1.2-3.58l-1.58-1.11,6.98,2.31-1.22,3.73Z"/><path class="cls-1" d="M206.54,116.01l-1.14,2.44-12.55-5.86.12-.06c.38-.2,1.44-.94,2.32-2.83l3.89-8.34c.07-.14.14-.29.19-.43.85-2.09.46-3.31.46-3.31l11.8,5.51-1.14,2.44c-.55-1.51-1.68-2.74-3.13-3.42l-4.8-2.24-2.85,6.1,4.84,2.26c.78.37,1.64.54,2.51.52l.67-.02-1.14,2.44-.43-.54c-.53-.66-1.21-1.2-1.98-1.56l-4.86-2.27-2.97,6.38,5.55,2.59c1.45.68,3.12.75,4.63.2Z"/><path class="cls-1" d="M169.73,141.32c-2.11.18-4.22.3-6.31.57-.39.05-.79.1-1.18.16-.01,0-.03,0-.05,0-2.78.38-5.54.81-8.31,1.28-1.01.17-1.85.54-2.47,1.06-.02.01-.04.02-.06.04-1.18,1.01-1.57,2.56-.96,4.3.08.23.18.47.3.72.47.96,1.11,1.84,1.75,2.7.03.04.06.07.08.11.36.49.73.97,1.07,1.46.21.3.45.58.69.85.01.02.02.03.04.05h-.71c-.18-.12-.36-.24-.55-.36-.18-.11-.36-.22-.54-.34-1.54-.97-3.04-2.05-4.69-2.77-.51-.22-1.01-.36-1.49-.4-1.82-.18-3.27.91-3.65,3.03-.06.33-.11.65-.17.98-.34,2.04-.64,4.08-.91,6.14-.35,2.62-.67,5.26-1.02,7.88-.05.37-.06.75-.21,1.14h0c-.03.09-.07.17-.12.25-.02.04-.06.09-.09.14-.01-.13-.03-.26-.04-.39,0,0,0,0,0,0-.14-1.38-.25-2.76-.47-4.13-.25-1.63-.5-3.26-.77-4.89-.33-2.03-.66-4.06-1.03-6.08-.04-.27-.09-.54-.14-.81-.35-1.92-1.83-3.17-3.55-3.25-.63-.03-1.3.1-1.96.42-1.49.72-2.82,1.77-4.19,2.73-.13.09-.26.18-.39.27-.34.22-.63.51-.93.78-.02-.01-.03-.03-.05-.04.23-.33.46-.64.67-.98.11-.18.22-.36.34-.54.97-1.54,2.05-3.04,2.77-4.69.22-.51.36-1.01.4-1.49.18-1.82-.91-3.27-3.03-3.65-2.36-.42-4.73-.76-7.12-1.07-2.62-.35-5.26-.67-7.88-1.02-.37-.05-.75-.06-1.14-.21h0c-.08-.04-.16-.07-.25-.12-.04-.02-.09-.06-.14-.09.13-.01.26-.03.39-.04,0,0,0,0,0,0,1.38-.14,2.76-.25,4.13-.47,1.63-.25,3.26-.5,4.89-.77,2.3-.37,4.6-.76,6.89-1.17,1.92-.35,3.17-1.83,3.25-3.55.03-.63-.1-1.3-.42-1.96-.72-1.49-1.77-2.82-2.73-4.19-.09-.13-.18-.26-.27-.39-.26-.39-.6-.72-.91-1.07.06-.07.11-.14.16-.2.37.31.72.64,1.13.91.44.29.88.6,1.31.9,1.11.79,2.23,1.57,3.44,2.11.04.02.08.03.12.05,1.82.77,3.45.35,4.37-1.05.26-.41.47-.9.61-1.46.72-3.06,1.22-6.18,1.69-9.29,0-.02,0-.03,0-.05.07-.45.14-.9.21-1.34.27-1.76.38-3.53.7-5.29.05-.29.11-.58.17-.86.18,2.11.3,4.22.57,6.31.05.39.1.79.16,1.18,0,.01,0,.03,0,.05.38,2.78.81,5.54,1.28,8.31.17,1.01.54,1.85,1.06,2.47.01.02.02.04.04.06,1.01,1.18,2.56,1.57,4.3.96.23-.08.47-.18.72-.3.96-.47,1.84-1.11,2.7-1.75.04-.03.07-.06.11-.08.25-.18.49-.36.73-.55.08-.06.16-.12.24-.17.22-.15.44-.3.66-.45.36-.23.7-.49,1.05-.72.07.07.15.14.22.21-.02.04-.05.09-.07.14h0c-.09.17-.18.34-.28.5-.17.2-.34.41-.49.63-.29.44-.6.88-.9,1.31-.79,1.11-1.57,2.23-2.11,3.44-.02.04-.03.08-.05.12-.77,1.82-.35,3.45,1.05,4.37.41.26.9.47,1.46.61,3.06.72,6.18,1.22,9.29,1.69.02,0,.03,0,.05,0,.45.07.9.14,1.34.21,1.76.27,3.53.38,5.29.7.29.05.58.11.86.17Z"/></svg>